<svg width="332" height="352" viewBox="0 0 332 352" fill="none" xmlns="http://www.w3.org/2000/svg">
<path d="M330.466 248.196C331.436 245.34 331.31 243.899 329.745 241.321C323.769 231.475 325.459 224.224 323.809 209.721C320.515 180.778 319.745 143.466 284.919 134.965C270.122 131.354 254.591 135.525 239.38 134.735C223.442 133.907 208.347 127.675 193.619 121.529C191.349 120.582 188.972 119.555 187.478 117.601C186.255 116 185.777 113.968 185.363 111.996C178.215 77.9342 181.593 41.7344 194.953 9.59332C195.437 8.42858 195.65 7.1533 195.45 5.90832C194.478 -0.144889 186.465 1.0423 181.683 3.81896C158.327 17.3796 143.339 41.3871 129.291 64.4532C118.974 81.3925 107.803 99.3496 97.4859 116.289C89.7523 128.987 89.3349 136.666 82.3161 139.836C76.8593 142.301 64.8218 150.213 55.9858 159.322C51.6752 163.765 45.9255 154.948 33.6441 156.937C13.6823 160.17 -2.72961 180.066 1.80202 199.773C4.51584 211.574 13.0119 221.03 19.1313 231.479C26.9445 244.821 32.6471 261.764 47.2014 266.983C58.1419 270.906 71.7127 266.884 80.9017 274.001C83.9162 282.422 85.0316 291.787 90.3986 298.941C95.7657 306.096 107.932 309.263 113.292 302.104C118.935 294.567 112.283 284.007 112.934 274.613C116.246 274.139 119.558 273.665 122.869 273.19C119.074 285.462 118.438 298.697 121.039 311.276C122.079 316.304 124.027 321.733 128.575 324.114C133.123 326.495 140.3 323.032 139.289 318C144.071 322.178 141.505 345.716 152.326 351.13C153.203 351.569 154.143 350.674 153.724 349.787C146.432 334.366 148.759 336.762 148.838 327.387C148.843 326.734 148.499 322.996 149.829 324.069C150.673 324.75 151.496 325.455 152.391 326.068L167.427 336.366C169.962 338.06 169.579 335.716 168.777 334.806C159.101 323.832 155.923 320.483 149.866 318.058C161.785 319.862 161.237 308.861 159.072 302.614C155.286 291.691 148.802 281.716 140.357 273.822C145.086 272.105 149.558 269.679 153.576 266.649C163.096 277.788 174.329 287.461 186.759 295.223C189.806 297.125 193.155 298.973 196.743 298.792C201.522 298.552 206.163 291.366 209.504 283.351C213.026 274.895 221.662 276.984 221.144 267.839C220.736 260.618 215.639 254.327 209.464 250.564C203.29 246.8 196.102 245.131 189.053 243.517C200.456 234.032 209.59 221.837 215.486 208.227C219.058 199.98 222.103 190.451 230.012 186.18C239.959 180.808 253.082 187.294 258.456 197.239C263.829 207.186 263.313 219.219 261.651 230.401C259.991 241.583 257.322 252.868 258.871 264.067C260.227 273.867 263.419 286.206 272.663 284.566C275.38 284.085 278.158 279.925 279.107 277.833C288.845 256.364 291.883 240.435 292.912 215.681C292.974 214.188 293.138 208.382 294.506 208.382C297.69 208.382 304.39 232.506 310.333 240.23C318.4 250.715 323.133 251.575 325.388 251.487C327.011 251.422 329.9 249.865 330.466 248.196ZM131.518 310.927C131.495 311.317 131.469 311.707 131.441 312.097C131.414 312.479 131.333 312.935 130.977 313.078C130.491 313.272 130.064 312.7 129.859 312.22C126.222 303.654 126.755 293.929 128.05 284.715C128.202 283.636 128.835 283.329 129.527 284.104C130.064 284.706 130.075 286.903 130.215 287.709C130.695 290.478 131.058 293.265 131.305 296.064C131.74 301.004 131.813 305.976 131.518 310.927ZM144.163 291.389C146.271 294.635 148.311 297.947 149.839 301.502C150.605 303.283 151.28 305.1 151.865 306.947C152.125 307.763 153.082 309.463 151.894 309.746C151.541 309.83 151.162 309.686 150.932 309.405C150.722 309.15 150.527 308.879 150.339 308.608C147.663 304.754 145.166 300.765 143.061 296.567C141.99 294.432 141.02 292.247 140.176 290.013C139.443 288.073 138.08 285.578 137.951 283.505C137.945 283.408 137.943 283.307 137.989 283.222C138.36 282.547 143.084 289.737 143.58 290.495C143.774 290.793 143.969 291.091 144.163 291.389Z" fill="#222222"/>
<path d="M166.224 243.227C165.483 243.104 164.827 242.679 164.609 241.965C164.364 241.156 164.74 240.303 165.093 239.534C174.189 219.703 171.912 195.076 159.176 177.329C158.322 176.139 157.054 175.268 155.604 175.068C152.349 174.62 151.107 177.664 151.589 180.083C151.94 181.848 152.994 183.378 153.954 184.901C163.713 200.388 165.241 221.052 156.785 237.288C150.524 249.309 139.264 258.41 126.526 263.042C113.482 267.785 99.0094 268.012 85.5087 264.821C84.8916 264.675 84.3109 264.365 83.8996 263.88C82.7955 262.583 83.6466 261.247 84.3653 260.105C86.0316 257.456 87.2665 254.146 85.7085 251.248C84.7743 249.51 82.5334 248.446 80.6825 249.129C78.9068 249.785 78.5236 251.491 77.8386 252.954C75.4524 258.051 69.2741 260.228 63.6495 260.411C53.4894 260.74 43.29 255.979 37.0196 247.977C34.3271 244.541 32.2849 240.288 32.736 235.947C33.1753 231.723 35.8605 228.117 37.4634 224.183C40.2698 217.295 39.8075 209.21 43.6687 202.852C46.3904 198.37 50.9237 195.334 54.4039 191.41C58.6421 186.633 61.2863 180.466 61.8238 174.102C65.262 174.804 63.6753 181.299 66.9513 182.641C68.3124 183.198 69.8503 182.545 70.6335 181.3C71.8532 179.362 71.3275 177.066 70.5022 175.081C69.0446 171.574 66.6444 168.463 63.6209 166.164C62.744 165.497 61.7374 164.789 61.9293 163.474C62.046 162.672 62.6222 162.021 63.351 161.668C65.147 160.798 67.0573 161.446 68.9122 161.232C73.0432 160.757 75.3413 156.532 77.2556 153.329C78.3777 151.45 79.6423 149.61 81.2868 148.147C82.143 147.385 86.3312 143.869 86.8912 144.908C87.4651 145.974 86.1276 149.671 85.8874 150.785C84.969 155.049 84.5998 155.103 84.3821 159.461C84.3002 161.104 85.0767 164.349 86.6572 165.212C88.5631 166.254 91.3212 165.867 93.0375 164.982C108.963 156.767 127.597 152.655 145.375 151.024C147.449 150.834 149.657 150.68 151.728 150.987C158.675 152.02 163.486 159.817 167.083 165.2C171.319 171.539 174.653 178.568 176.309 186.036C179.032 198.317 178.917 211.208 176.06 223.454C174.745 229.087 172.849 234.586 170.382 239.819C169.812 241.03 169.145 242.299 167.973 242.946C167.455 243.233 166.813 243.325 166.224 243.227ZM151.98 211.443C152.07 197.686 145.481 183.874 133.572 176.176C126.264 171.453 117.108 169.442 108.61 171.314C99.2775 173.37 91.3224 179.922 86.2179 188C79.152 199.183 77.2741 213.709 82.102 226.025C86.9299 238.341 98.6452 247.909 111.796 249.336C124.675 250.733 137.932 244.2 145.246 233.508C149.765 226.903 151.929 219.182 151.98 211.443ZM72.9563 231.333C72.9809 226.62 71.3763 222.669 68.6603 219.14C66.1849 215.924 62.9342 214.457 58.8362 214.83C55.7089 215.116 52.7987 216.064 50.3183 217.909C46.1065 221.043 43.102 225 42.8333 230.536C42.5948 235.441 46.5244 238.741 51.2704 237.611C52.1333 237.407 52.8492 236.912 53.619 236.527C55.016 235.829 55.5658 235.912 56.4304 237.266C56.9617 238.098 57.5492 238.88 58.1719 239.637C61.2482 243.378 66.7342 242.93 69.3992 240.055C71.7012 237.571 73.1829 234.676 72.9563 231.333ZM61.913 204.171C61.1068 204.22 60.2994 204.252 59.4955 204.322C57.3898 204.505 55.6275 205.374 54.2788 207.022C53.1914 208.349 53.0551 210.366 53.9539 211.534C54.791 212.621 56.2329 212.704 58.0238 211.7C58.5512 211.405 59.0831 211.282 59.6655 211.244C62.8483 211.032 65.5599 211.768 67.4484 214.649C68.2754 215.911 69.5344 216.79 71.1917 216.814C72.8771 216.838 73.818 216.044 73.9656 214.394C74.0542 213.405 74.0223 212.391 73.5196 211.521C70.9387 207.055 67.4523 203.99 61.913 204.171ZM106.424 261.884C106.723 261.906 107.294 261.839 107.857 261.693C109.704 261.213 111.257 260.286 112.289 258.641C113.335 256.973 112.817 255.459 111.005 254.785C110.301 254.523 109.573 254.38 108.82 254.294C106.707 254.052 104.593 253.864 102.584 253.011C101.375 252.497 100.066 252.168 98.7142 252.175C96.9862 252.184 95.8843 252.836 95.3995 254.147C94.8441 255.648 95.2733 257.082 96.4437 258.218C97.2987 259.048 98.3653 259.5 99.3724 260.021C101.481 261.111 103.722 261.857 106.424 261.884ZM140.821 168.909C140.536 166.948 139.115 165.333 137.26 164.633C135.85 164.103 134.461 163.533 133.078 162.935C131.282 162.159 129.487 161.369 127.55 160.975C125.76 160.611 124.567 161.496 124.513 163.279C124.435 165.851 125.034 166.735 127.428 167.774C129.329 168.599 131.19 169.518 133.094 170.338C134.687 171.024 136.353 171.537 138.059 171.827C140.01 172.158 141.114 170.937 140.821 168.909ZM52.6747 242.059C51.9111 242.025 51.1818 242.141 50.4928 242.495C48.3484 243.598 48.1582 245.993 50.1556 247.356C51.1543 248.039 52.2102 248.67 53.3957 248.979C55.0368 249.407 56.6346 248.629 57.2793 247.155C57.8875 245.764 57.4128 244.114 56.0837 243.169C55.071 242.449 53.9175 242.101 52.6747 242.059Z" fill="#CAB99A"/>
<path d="M182.781 142.511C181.097 142.263 179.428 142.104 177.662 141.997C171.396 141.619 165.127 141.274 158.851 141.133C147.955 140.89 137.01 141.32 126.298 143.564C115.015 145.928 104.252 150.283 94.0459 155.764C93.1101 156.267 91.952 156.273 91.0796 155.667C89.2736 154.413 90.7839 152.262 91.8387 149.903C102.803 125.368 115.775 101.774 129.92 78.9393C142.557 58.5377 155.331 36.4333 172.231 19.1949C173.803 17.5914 176.362 15.364 178.164 14.0467C190.153 5.28078 185.384 16.5922 184.542 18.7646C181.822 25.7733 178.663 36.7789 176.915 44.1124C173.417 58.779 172.93 73.133 173.495 88.2264C174.2 107.107 180.261 122.264 189.077 140.049C189.239 140.375 189.355 140.73 189.373 141.094C189.496 143.558 186.697 143.222 185.187 142.925C184.374 142.764 183.576 142.627 182.781 142.511Z" fill="#F2F2F0"/>
<path d="M274.522 276.804C271.122 279.864 267.533 275.604 266.595 273.623C262.47 264.915 265.629 254.51 266.737 244.777C268.056 233.2 270.996 221.698 270.279 210.069C269.825 202.725 267.789 195.269 263.169 189.542C258.167 183.341 250.626 179.734 242.911 177.62C242.214 177.429 241.816 176.682 242.055 175.999C245.488 166.205 244.718 155.011 240.025 145.76C239.493 144.709 240.245 143.457 241.422 143.421C255.771 142.99 275.725 137.827 289.253 142.464C307.593 148.749 308.7 169.355 312.147 186.617C315.906 205.453 316.595 225.525 325.269 242.976C325.791 244.025 324.732 245.161 323.655 244.698C320.563 243.369 314.861 237.729 313.146 234.725C300.856 213.197 299.826 191.818 283.215 175.906C281.538 174.299 275.818 173.533 277.883 177.874C285.119 193.085 287.708 205.987 287.323 217.934C286.804 233.988 277.333 274.274 274.522 276.804Z" fill="#CA4140"/>
<path d="M188.704 231.844C187.998 232.486 186.898 231.816 187.134 230.892C187.417 229.788 187.909 228.462 188.171 227.467C188.966 224.441 190.121 221.69 190.503 218.595C191.552 210.105 191.561 201.606 190.279 193.14C189.595 188.625 188.537 184.187 187.216 179.805C186.281 176.701 185.219 173.652 183.975 170.665C181.881 165.643 179.402 160.818 176.416 156.263C175.668 155.121 174.908 153.987 174.162 152.87C173.818 152.356 174.161 151.664 174.778 151.628C177.527 151.47 183.974 151.762 187.295 151.926C191.978 152.156 197.849 152.113 202.221 150.382C202.724 150.183 203.187 149.876 203.529 149.458C206.583 145.747 198.725 138.638 196.959 136.042C196.869 135.909 195.405 134.118 194.65 132.855C194.392 132.424 194.774 131.897 195.264 132.008C207.589 134.797 222.738 137.952 231.456 147.779C234.283 150.966 235.455 154.945 235.985 159.056C236.603 163.842 235.98 170.195 232.884 174.1C231.092 176.361 227.217 178.664 224.355 177.071C221.607 175.54 222.08 171.108 218.247 170.572C217.178 170.423 216.081 170.803 215.329 171.577C212.667 174.318 215.641 177.306 216.037 180.074C216.466 183.062 215.407 186.726 214.741 189.636C212.798 198.135 209.891 204.409 205.671 211.928C204.303 214.363 200.26 218.981 198.657 221.244C195.458 225.759 192.772 228.126 188.704 231.844Z" fill="#CAB99A"/>
<path d="M163.281 254.163C163.571 254.16 163.86 254.156 164.149 254.152C169.812 254.071 175.458 253.492 181.121 253.41C186.783 253.327 192.529 253.758 197.876 255.625C201.581 256.918 205.086 258.942 207.875 261.725C210.414 264.258 213.682 268.654 212.17 272.455C211.427 274.324 207.94 274.291 206.542 275.737C204.569 277.775 205.086 281.64 203.683 284.105C202.28 286.57 200.396 288.997 197.696 289.869C194.622 290.862 191.281 289.595 188.481 287.981C181.941 284.21 176.728 278.56 171.623 272.998L157.513 257.623C157.188 257.269 156.954 256.828 156.914 256.349C156.814 255.124 157.799 254.736 158.681 254.544C160.187 254.217 161.737 254.182 163.281 254.163Z" fill="#C94140"/>
<path d="M25.7858 223.186C25.5283 223.201 25.2663 223.18 25.002 223.114C24.1071 222.89 23.412 222.202 22.7802 221.529C15.969 214.268 10.8651 205.046 10.092 195.121C9.31829 185.196 13.4179 174.634 21.7008 169.111C27.2378 165.418 34.1713 164.195 40.8018 164.771C56.4468 166.128 54.1549 180.863 45.7773 189.973C41.2372 194.91 35.7209 199.361 33.4503 205.673C31.6735 210.614 32.0522 216.341 29.1987 220.748C28.4132 221.962 27.157 223.103 25.7858 223.186ZM34.0613 168.223C33.7623 168.227 33.4661 168.243 33.1737 168.273C28.4199 168.77 23.3031 171.852 24.2047 177.554C24.2642 177.928 24.3585 178.297 24.4853 178.655C26.2492 183.623 31.6303 185.745 36.2236 186.241C38.3629 186.472 40.5286 186.048 42.4244 185.032C53.6141 179.029 42.6483 168.132 34.0613 168.223Z" fill="white"/>
<path d="M91.4185 274.754C92.4126 274.228 95.7027 275.115 96.8652 275.214C97.6187 275.278 98.3716 275.343 99.1245 275.408C101.024 275.571 102.545 277.075 102.694 278.975C103.103 284.185 103.986 289.229 105.114 294.421C105.283 295.197 106.858 298.218 105.779 298.791C104.7 299.365 102.447 297.25 101.568 296.42C100.145 295.077 98.8109 293.639 97.6663 292.052C95.6471 289.253 93.5836 286.475 92.4856 283.131C91.865 281.242 89.3577 275.85 91.4185 274.754Z" fill="#C94140"/>
<path d="M144.122 205.351C142.534 193.079 134.954 181.618 122.265 178.932C113.092 176.99 103.107 180.197 96.425 186.776C89.7434 193.356 86.3945 203.031 87.0717 212.383C87.649 220.347 91.1068 228.145 96.9266 233.611C102.746 239.078 110.932 242.062 118.87 241.202C128.389 240.17 136.93 233.629 141.148 225.032C144.054 219.112 144.996 212.108 144.122 205.351ZM125.791 195.078C121.957 197.642 117.982 199.976 113.504 201.285C112.175 201.673 110.861 202.125 109.516 202.441C106.713 203.097 103.962 203.174 101.221 201.944C97.4231 200.24 95.9156 196.044 97.3407 192.042C98.8476 187.807 101.948 185.081 105.806 183.114C108.926 181.522 112.224 180.521 115.785 180.6C118.796 180.713 121.75 181.002 124.446 182.594C126.431 183.766 127.827 185.349 128.512 187.55C129.277 190.009 128.137 193.509 125.791 195.078Z" fill="white"/>
<path d="M52.7204 226.796C52.6873 226.793 52.6542 226.79 52.6217 226.783C52.3894 226.739 52.1667 226.538 52.1919 226.303C52.2071 226.159 52.3058 226.041 52.4017 225.934C53.567 224.637 54.9624 223.548 56.5036 222.733C57.3497 222.285 58.2704 221.913 59.2275 221.927C60.4472 221.944 61.589 222.595 62.4508 223.459C64.1816 225.195 65.5377 227.774 66.0802 230.147C66.1335 230.381 66.1633 230.672 65.9753 230.822C65.7408 231.011 65.4008 230.817 65.1657 230.628C63.482 229.277 61.6788 228.039 59.6674 227.256C57.656 226.473 55.4118 226.167 53.3202 226.7C53.1233 226.751 52.9207 226.809 52.7204 226.796Z" fill="#C94140"/>
</svg>
