<svg width="285" height="351" viewBox="0 0 285 351" fill="none" xmlns="http://www.w3.org/2000/svg">
<path d="M283.97 73.4296C283.902 71.9393 283.816 70.4501 283.711 68.9635C282.768 55.691 279.564 42.7515 270.535 32.5727C260.996 21.8193 248.693 13.7727 235.4 8.43245C220.623 2.4955 204.719 0.115324 188.841 0.686652C174.404 1.20624 159.431 3.38644 145.739 8.70195C136.482 12.2965 127.917 18.5746 120.762 25.3923C117.148 28.8353 113.874 32.6864 111.288 36.9654C109.171 40.4672 108.363 44.5759 106.327 48.1171C103.957 52.2414 99.9663 54.2686 95.5902 55.7454C92.8155 56.6822 89.8969 57.9962 87.196 59.3356C84.6579 60.5941 82.3284 62.4752 79.5505 63.1877C77.2511 63.7779 75.2714 62.8994 73.0896 62.2246C61.7741 58.7238 49.5169 68.2143 44.9145 77.9673C43.7061 80.5275 43.5606 83.9533 42.0999 86.2915C41.2235 87.6939 39.6033 88.6156 38.3793 89.8197C35.1233 93.0218 32.1486 96.4864 29.0747 99.8605C24.1769 105.237 19.9664 111.085 16.4629 117.454C14.0564 121.829 11.7166 126.239 9.60539 130.763C7.82241 134.584 6.31217 138.524 5.02884 142.541C3.10842 148.554 2.22017 154.768 1.44618 161.014C0.489477 168.735 0.175246 176.528 0.257711 184.303C0.361197 194.077 1.11093 203.893 3.16448 213.464C4.42679 219.347 5.82115 225.29 8.35979 230.774C9.62695 233.512 11.19 236.093 13.2155 238.338C14.6234 239.899 16.4392 240.943 18.3661 241.731C20.0434 242.417 22.5379 242.477 22.5697 244.72C22.5772 245.236 22.5341 245.753 22.5174 246.269C22.3584 251.202 22.795 256.058 24.1214 260.84C26.0494 267.79 29.8913 273.263 36.1371 276.972C37.9131 278.026 39.696 279.071 41.444 280.17C46.6334 283.437 52.0108 286.274 58.0044 287.803C70.0362 290.872 71.5017 300.987 74.6392 311.574C77.5778 321.489 83.4845 329.464 91.281 335.978C97.4179 341.106 104.687 344.393 112.33 346.631C118.276 348.374 124.414 349.278 130.607 349.824C131.53 349.904 132.454 349.982 133.378 350.055C135.224 350.201 137.071 350.328 138.918 350.428C139.842 350.477 140.766 350.52 141.69 350.554C145.386 350.693 149.085 350.705 152.793 350.52C155.347 350.439 157.902 350.387 160.455 350.304C163.06 350.219 165.664 350.101 168.264 349.887C169.98 349.746 171.695 349.564 173.408 349.32C179.218 348.494 184.89 347.181 190.507 345.534C198.584 343.164 206.641 339.129 212.677 332.931C220.258 325.147 222.18 316.268 224.152 305.934C225.202 300.434 227.16 295.73 229.415 290.64C231.539 285.844 232.748 280.838 232.271 275.581C231.691 269.173 232.693 264.43 237.627 260.048C248.187 250.667 252.765 240.576 254.561 226.705C255.768 217.385 256.066 207.977 256.013 198.588C255.964 189.897 254.358 180.68 257.979 172.497C260.592 166.596 264.337 161.105 267.226 155.315C273.567 142.608 278.392 129.941 280.958 115.941C283.518 101.975 284.61 87.6352 283.97 73.4296Z" fill="#222222"/>
<path d="M253.548 155.384C248.793 150.257 244.792 142.894 238.875 138.835C232.133 134.209 224.047 132.071 216.139 130.444C213.435 129.887 210.694 129.683 207.948 129.491C204.604 129.257 201.266 128.935 197.924 128.653C197.409 128.61 196.895 128.549 196.379 128.543C191.298 128.489 186.21 128.264 181.137 128.447C175.645 128.645 170.166 129.165 164.692 129.787C159.624 130.363 154.7 131.472 149.751 132.583C144.466 133.77 139.152 134.82 133.907 136.183C133.491 136.292 133.069 136.381 132.662 136.514C124.934 139.031 117.109 141.287 109.526 144.226C105.588 145.751 101.712 147.437 97.9812 149.419C97.0326 149.924 89.6199 155.24 89.6382 152.74C89.6415 152.285 89.8042 151.909 90.0495 151.547C92.766 147.537 95.7282 143.791 97.985 139.487C101.678 132.444 104.294 124.985 106.767 117.448C109.562 108.925 111.315 100.154 113.278 91.4355C114.201 87.3387 114.947 83.1825 115.225 78.959C115.388 76.4759 115.837 74.0116 116.162 71.5398C116.691 67.5325 117.196 63.5235 118.233 59.6018C119.643 54.269 121.219 49.0036 123.88 44.1247C124.55 42.898 125.371 41.8297 126.329 40.8223C152.604 13.211 200.812 9.6645 234.088 24.6371C245.126 29.6033 257.114 35.9003 264.088 46.1853C276.052 63.8301 272.25 91.352 268.795 111.081C267.56 118.138 265.907 125.839 263.744 132.951C261.756 139.486 259.006 151.104 253.548 155.384Z" fill="#CA4140"/>
<path d="M185.665 139.438C192.381 139.513 199.09 140.05 205.735 141.093C214.258 142.417 222.778 144.582 230.252 148.886C237.727 153.189 244.115 159.83 246.785 168.031C249.19 175.421 248.455 183.417 247.694 191.151C246.666 201.601 245.637 212.05 244.607 222.5C243.916 229.528 243.116 236.87 239.213 242.755C235.087 248.977 227.95 252.82 224.219 259.287C220.215 266.226 220.867 274.783 221.374 282.777C221.504 284.847 221.586 287.058 220.528 288.842C219.47 290.625 216.815 291.602 215.264 290.225C212.715 287.964 215.499 282.343 212.384 280.957C210.585 280.157 208.602 281.953 208.051 283.843C207.502 285.734 207.752 287.797 207.129 289.665C205.566 294.345 197.92 295.156 195.41 290.908C194.35 289.115 194.209 286.918 193.301 285.043C192.394 283.169 190.053 281.611 188.288 282.717C186.897 283.588 186.748 285.499 186.289 287.075C185.316 290.411 182.177 293 178.718 293.32C175.259 293.639 171.699 291.67 170.131 288.569C169.405 287.135 169.077 285.501 168.174 284.17C167.272 282.838 165.451 281.883 164.052 282.677C162.414 283.605 162.595 285.963 162.818 287.832C163.128 290.426 163.057 293.185 161.793 295.47C160.528 297.755 157.797 299.384 155.28 298.686C151.412 297.614 150.669 292.601 150.093 288.63C149.517 284.659 146.704 279.761 142.872 280.954C139.902 281.877 139.241 285.758 139.405 288.865C139.57 291.971 139.798 295.641 137.367 297.583C134.694 299.719 130.479 298.047 128.527 295.237C126.574 292.426 126.123 288.882 125.17 285.595C121.523 273.012 109.681 263.697 96.787 261.374C83.8933 259.052 70.3528 263.105 59.6528 270.664C58.2396 271.663 56.7698 272.759 55.0461 272.912C53.0071 273.092 51.1169 271.912 49.4643 270.704C38.1208 262.418 29.1315 248.593 32.1219 234.867C33.5421 228.346 37.4654 222.68 41.5083 217.37C45.4004 212.258 49.4864 207.293 53.7552 202.491C54.4581 201.7 55.2224 200.877 56.2411 200.589C57.5152 200.228 58.8568 200.791 60.0177 201.428C68.4756 206.07 73.984 215.636 73.7528 225.281C73.521 234.927 67.5609 244.218 58.8902 248.449C57.132 249.307 54.9351 250.514 55.1625 252.458C55.3727 254.258 57.5524 255.034 59.358 255.181C72.837 256.275 84.5897 243.371 85.7162 229.895C87.006 214.466 76.0774 198.898 61.1281 194.87C81.0803 167.632 113.058 151.761 145.239 144.099C157.882 141.085 172.66 139.293 185.665 139.438ZM162.686 198.711C162.686 197.334 162.662 195.957 162.693 194.58C162.724 193.191 162.425 191.844 162.255 190.478C161.448 183.961 158.708 178.304 154.594 173.27C152.839 171.122 150.779 169.289 148.398 167.855C142.506 164.306 136.32 163.64 129.831 166.018C125.613 167.564 122.125 170.135 119.137 173.454C112.839 180.453 108.092 188.388 104.977 197.259C103.518 201.412 102.829 205.748 102.641 210.169C102.389 216.093 103.404 221.835 104.959 227.499C106.157 231.865 108.113 235.863 111.155 239.277C113.283 241.665 115.64 243.795 118.234 245.666C120.358 247.2 122.734 248.186 125.249 248.83C128.021 249.539 130.86 249.635 133.709 249.589C134.679 249.573 135.566 249.297 136.437 248.904C140.522 247.062 143.852 244.246 146.697 240.844C148.909 238.2 150.771 235.3 152.593 232.375C156.777 225.661 159.291 218.257 161.524 210.742C161.888 209.516 162.125 208.245 162.3 206.957C162.674 204.215 162.735 201.467 162.686 198.711ZM241.422 210.937C241.345 209.216 241.327 207.49 241.178 205.777C240.862 202.167 240.343 198.603 238.794 195.26C238 193.545 237.36 191.76 236.645 190.008C235.005 185.995 232.746 182.387 229.986 179.023C226.848 175.199 223.046 172.396 218.534 170.48C218.139 170.312 217.742 170.142 217.339 169.994C212.084 168.061 206.716 167.052 201.14 168.263C194.671 169.668 189.798 173.105 187.417 179.505C186.45 182.105 185.939 184.827 186.095 187.607C186.225 189.914 186.384 192.213 187.414 194.396C189.726 199.292 192.007 204.204 193.974 209.259C195.406 212.944 197.026 216.556 198.539 220.211C199.361 222.197 200.105 224.216 200.936 226.198C202.099 228.973 203.259 231.747 204.65 234.426C206.142 237.301 208.382 238.993 211.537 239.723C214.77 240.471 217.983 240.645 221.266 240.215C227.802 239.358 232.896 236.222 236.507 230.704C237.93 228.53 238.952 226.166 239.715 223.686C240.994 219.531 241.449 215.27 241.422 210.937ZM180.121 253.111C180.075 253.112 180.029 253.112 179.984 253.113C179.939 251.221 179.831 249.328 179.868 247.439C179.899 245.896 180.088 244.354 180.235 242.815C180.309 242.039 180.847 241.597 181.521 241.344C182.083 241.132 182.786 241.475 183.229 242.212C183.713 243.018 184.194 243.827 184.423 244.771C184.748 246.114 184.984 247.455 184.984 248.846C184.983 251.351 185.274 253.841 185.948 256.247C187.163 260.593 189.043 264.482 193.67 266.212C193.91 266.302 194.137 266.429 194.363 266.553C196.393 267.671 198.462 267.666 200.569 266.788C204.166 265.288 207.108 262.044 206.797 257.353C206.559 253.759 205.645 250.426 203.576 247.432C203.044 246.663 202.669 245.778 202.28 244.919C200.757 241.552 199.324 238.143 197.733 234.809C195.357 229.833 193.285 224.746 191.805 219.432C190.029 213.051 187.803 206.818 185.696 200.546C185.391 199.638 184.985 198.793 184.272 198.127C183.554 197.457 182.798 197.375 181.907 197.814C181.077 198.224 180.678 198.987 180.235 199.723C177.266 204.668 174.609 209.78 172.237 215.035C167.527 225.473 163.616 237.183 161.933 248.704C161.323 252.889 161.129 257.1 161.661 261.315C161.932 263.462 162.443 265.549 163.461 267.473C165.151 270.668 167.007 271.658 170.585 271.328C170.928 271.296 171.277 271.279 171.609 271.198C175.053 270.356 177.762 268.622 179.052 265.119C179.744 263.237 180.066 261.293 180.11 259.307C180.157 257.242 180.121 255.176 180.121 253.111Z" fill="#FDFDFD"/>
<path d="M159.878 338.787C158.094 338.787 156.199 338.83 154.306 338.78C142.914 338.482 131.66 337.128 120.631 334.192C117.227 333.284 113.884 332.18 110.71 330.595C99.2616 324.885 89.777 313.31 85.0382 301.555C84.1095 299.252 83.8303 296.676 83.1927 294.283C82.5238 291.772 81.0271 289.885 79.6909 287.65C77.8562 284.582 75.7919 281.47 72.6205 279.809C71.6309 279.291 70.603 278.841 69.6318 278.291C68.6206 277.718 68.5387 276.739 69.4065 275.968C69.7897 275.627 70.23 275.346 70.6575 275.059C77.1469 270.691 84.3424 268.776 92.1211 268.806C96.0449 268.821 99.7866 269.747 103.496 270.877C104.689 271.241 105.153 271.936 105.026 273.22C104.95 273.983 104.781 274.754 104.537 275.481C102.118 282.691 102.897 289.738 105.612 296.676C106.71 299.483 107.986 302.212 109.672 304.728C111.027 306.753 112.637 308.534 114.691 309.864C115.48 310.375 116.322 310.829 117.187 311.198C118.969 311.955 120.676 311.847 122.321 310.7C123.458 309.906 124.519 309.042 125.462 308.033C126.466 306.959 127.575 306.02 128.783 305.176C130.813 303.755 133.074 303.051 135.507 302.765C137.269 302.558 138.727 303.123 139.953 304.353C141.276 305.681 142.037 307.224 142.113 309.162C142.221 311.914 142.488 314.664 143.658 317.22C144.05 318.078 144.442 318.958 144.981 319.724C146.992 322.584 150.699 322.318 152.346 319.221C153.131 317.743 153.342 316.121 153.404 314.476C153.442 313.444 153.348 312.397 153.488 311.38C154.207 306.15 155.474 305.127 161.004 304.34C161.751 304.233 162.342 304.54 162.874 305.019C163.729 305.791 164.324 306.711 164.537 307.861C164.804 309.297 165.093 310.73 165.357 312.167C165.593 313.439 165.864 314.702 166.408 315.882C167.367 317.964 169.625 319.357 171.771 319.22C173.872 319.085 175.27 317.909 175.797 315.845C176.325 313.779 176.163 311.734 175.537 309.727C174.888 307.651 175.09 305.664 175.92 303.689C177.745 299.35 183.911 299.39 186.502 302.636C186.811 303.023 186.984 303.549 187.116 304.039C187.383 305.034 187.654 306.039 187.788 307.057C188.05 309.055 188.845 310.864 189.657 312.665C189.936 313.283 190.399 313.818 190.785 314.386C191.744 315.804 193.082 316.063 194.645 315.648C196.32 315.202 196.9 314.577 197.108 312.788C197.197 312.025 197.161 311.244 197.135 310.473C197.099 309.355 197.02 308.239 196.96 307.121C196.901 306.041 197.266 305.096 197.867 304.221C199.792 301.412 204.086 300.012 207.275 301.191C208.826 301.764 209.882 302.821 210.21 304.5C210.44 305.681 210.711 306.856 210.88 308.047C211.111 309.682 211.756 311.023 213.309 311.758C214.075 312.12 214.202 312.668 214.076 313.435C213.677 315.85 212.754 318.056 211.505 320.141C208.606 324.983 204.562 328.653 199.771 331.542C197.628 332.833 195.349 333.76 192.9 334.399C187.566 335.79 182.201 337.001 176.731 337.674C171.174 338.361 165.586 338.647 159.878 338.787Z" fill="#FDFDFD"/>
<path d="M10.6794 186.938C10.7091 174.39 12.5427 162.11 16.0914 150.073C19.1771 139.607 23.6044 129.751 29.4368 120.537C32.2498 116.093 35.5241 111.987 39.1256 108.154C40.1238 107.092 41.2514 106.147 42.3493 105.182C43.022 104.591 43.6806 104.529 44.2137 104.913C44.7004 105.264 44.7236 105.769 44.6637 106.301C44.1064 111.288 44.2406 116.235 45.2205 121.18C45.905 124.634 46.2672 128.149 46.8439 131.625C47.1248 133.317 47.501 135.001 47.9473 136.657C49.5798 142.711 50.7678 148.896 53.0439 154.764C54.3003 158.004 55.4327 161.298 56.9273 164.44C58.4112 167.56 60.4776 170.192 62.3636 173.061C63.2529 174.414 63.2001 174.726 62.059 175.967C61.768 176.284 61.4575 176.584 61.153 176.888C53.4616 184.557 46.3987 192.779 39.884 201.459C35.1296 207.794 30.6592 214.325 27.1838 221.486C25.5205 224.913 24.1143 228.401 23.6777 232.22C23.6394 232.555 23.5596 232.905 23.4109 233.203C23.0611 233.908 21.899 234.056 21.4344 233.427C21.0296 232.879 20.7132 232.261 20.4039 231.65C17.1225 225.166 14.8113 218.343 13.2698 211.25C12.1918 206.288 11.4868 201.282 11.0772 196.215C10.8271 193.121 10.7247 190.035 10.6794 186.938Z" fill="#CA4140"/>
<path d="M56.5132 107.833C56.7131 103.404 56.6151 98.7465 57.6467 94.1689C57.9981 92.6085 58.605 91.3516 59.8452 90.2364C64.7958 85.7838 70.2288 82.0023 75.8348 78.4546C81.5848 74.8154 87.4899 71.4516 93.7454 68.7394C95.5618 67.9519 97.3857 67.1779 99.3056 66.6815C100.134 66.467 100.991 66.3242 101.843 66.2487C102.823 66.1625 103.325 66.5328 103.538 67.4496C103.653 67.9428 103.716 68.4769 103.66 68.9771C103.094 74.0215 102.71 79.0836 101.897 84.1038C100.587 92.1865 98.7224 100.136 96.4447 107.991C92.5516 121.415 87.5789 134.417 81.104 146.822C78.7923 151.251 76.3189 155.585 73.5075 159.721C72.9216 160.584 72.3115 161.4 71.3752 161.922C70.7144 162.292 70.2983 162.243 69.8456 161.577C69.4112 160.938 69.0193 160.267 68.6517 159.586C65.5272 153.805 63.2252 147.691 61.4013 141.394C59.3375 134.272 57.941 127.019 57.105 119.645C56.6668 115.783 56.5859 111.918 56.5132 107.833Z" fill="#CAB99A"/>
<path d="M121.87 302.216C119.942 302.346 118.357 301.477 116.936 300.348C113.473 297.598 111.096 294.084 109.841 289.829C109.55 288.841 109.261 287.85 109.015 286.85C108.746 285.757 108.678 284.649 108.815 283.52C108.95 282.412 108.933 281.281 109.12 280.184C109.333 278.938 110.421 278.515 111.448 279.243C112.002 279.636 112.5 280.127 112.961 280.631C114.606 282.431 115.698 284.573 116.709 286.766C117.932 289.418 119.117 292.09 120.437 294.694C121.444 296.682 122.506 298.651 124.117 300.268C124.866 301.019 124.46 301.991 123.414 302.138C122.906 302.209 122.385 302.193 121.87 302.216Z" fill="#F7F9F9"/>
<path d="M67.1678 66.2324C67.5015 66.2621 67.8491 66.2599 68.1822 66.3278C69.4607 66.5882 70.1916 67.8214 69.7566 69.0626C69.5911 69.5343 69.2952 69.9789 68.9858 70.3794C65.256 75.2082 60.3523 78.3866 54.6951 80.4919C53.7174 80.8557 52.6906 80.9721 51.6568 80.8757C50.1266 80.7334 49.3769 79.6915 49.7375 78.1872C49.855 77.6978 50.0717 77.2046 50.3546 76.7896C50.8354 76.084 51.348 75.3823 51.9463 74.7775C55.3715 71.3172 59.3698 68.7172 63.9107 66.9627C64.5484 66.7164 65.2156 66.538 65.8813 66.3796C66.2947 66.2809 66.7307 66.2788 67.1678 66.2324Z" fill="#CAB99A"/>
<path d="M157.85 199.791C157.825 201.379 157.743 202.975 157.615 204.57C156.604 217.278 151.345 229.606 142.579 238.9C140.62 240.977 138.465 242.929 135.904 244.189C133.343 245.45 130.319 245.963 127.6 245.097C126.662 244.799 125.618 243.778 126.232 243.009C126.522 242.646 127.041 242.59 127.502 242.545C133.922 241.918 139.752 238.131 143.854 233.153C147.955 228.175 150.491 222.083 152.301 215.893C154.402 208.707 155.604 201.157 154.748 193.719C153.893 186.282 150.846 178.944 145.413 173.794C145.024 173.426 144.589 172.974 144.674 172.446C144.848 171.36 146.527 171.757 147.366 172.468C155.742 179.574 158.01 189.512 157.85 199.791Z" fill="#F0F1F1"/>
<path d="M235.937 211.353C235.927 213.24 235.804 215.127 235.566 217.001C234.739 223.511 232.411 230.102 227.607 234.574C227.241 234.915 226.764 235.266 226.286 235.12C225.408 234.853 225.73 233.541 226.2 232.754C230.847 224.98 232.928 215.699 232.048 206.685C231.168 197.671 227.33 188.969 221.267 182.241C220.439 181.322 217.59 178.503 218.717 177.096C220.113 175.353 223.335 178.245 224.177 179.22C231.793 188.045 236 199.708 235.937 211.353Z" fill="#F3F5F5"/>
<path d="M202.558 258.081C202.508 260.137 201.833 262.237 199.99 262.923C199.08 263.262 197.655 262.593 198.069 261.714C198.205 261.426 198.5 261.255 198.754 261.063C201.02 259.353 200.334 255.834 199.363 253.166C194.308 239.272 187.658 225.935 183.708 211.686C183.266 210.091 182.457 207.751 183.89 206.503C184.543 206.795 184.784 207.373 184.998 208.093C188.435 219.68 192.638 231.04 197.57 242.075C199.673 246.78 201.94 251.535 202.498 256.658C202.548 257.117 202.57 257.598 202.558 258.081Z" fill="#EEEFEF"/>
<path d="M69.1694 278.329C70.8656 279.871 72.5618 281.413 74.258 282.955C76.0221 284.558 77.8046 286.182 79.1375 288.158C80.7728 290.581 81.6562 293.419 82.6172 296.179C84.9855 302.984 88.7126 310.103 93.0844 315.83C98.2759 322.631 92.6634 311.552 91.4291 307.553C89.9965 302.913 89.2204 298.398 87.3064 293.936C86.409 291.843 85.5105 289.748 84.7748 287.593C84.3587 286.376 84.017 284.953 84.7106 283.87C85.0928 283.274 85.7406 282.877 86.0867 282.259C86.8828 280.836 85.7471 279.12 84.5721 277.99C82.4081 275.909 80.1465 274.05 77.4052 272.827C76.6953 272.51 75.9607 271.951 75.2314 272.301C74.5194 272.644 73.3197 273.356 72.6373 273.755C71.2726 274.552 70.3105 275.204 69.0924 276.211C68.7604 276.486 68.438 277.066 68.5119 277.491C68.5588 277.764 68.776 277.972 68.9813 278.158C69.0439 278.215 69.1069 278.272 69.1694 278.329Z" fill="#F2F2F0"/>
<path d="M69.1694 185.066L76.3224 178.25C78.4535 176.522 87.4632 169.191 89.803 167.766C96.3884 163.757 100.409 160.452 107.443 157.313C129.702 147.378 139.797 144.203 163.955 140.653C182.513 137.925 212.666 139.053 229.593 148.586C233.057 150.537 239.318 154.943 241.464 158.294C246.168 165.64 246.272 165.49 247.078 169.746C238.73 168.983 203.896 119.684 69.1694 185.066Z" fill="#F2F2F0"/>
<path d="M55.9459 200.616C55.9459 200.619 38.0267 249.939 57.9095 271.798C54.8362 274.51 49.9551 272.312 48.0735 270.876C44.4714 268.125 42.0061 267.079 39.0907 263.59C36.2831 260.23 33.2836 254.258 32.0138 250.096C30.9374 246.567 30.1586 243.22 30.372 239.535C30.946 229.603 37.8694 220.153 44.3108 213.06C45.4265 211.831 47.6191 208.533 48.8663 207.437C49.422 206.95 53.2429 201.774 55.9459 200.616Z" fill="#F2F2F0"/>
<path d="M95.5549 234.064C95.6617 237.308 96.1581 240.602 97.5061 243.631C98.6035 246.095 100.29 248.318 102.213 250.304C104.082 252.235 106.209 254.23 108.885 255.174C110.166 255.626 111.828 255.825 113.183 255.678C113.774 255.614 114.525 255.482 114.774 254.913C115.316 253.673 113.162 253.727 112.41 253.289C104.67 248.772 101.981 241.69 98.9107 234.272C98.5986 233.519 98.2984 231.027 96.9374 231.568C96.1306 231.888 95.5301 233.308 95.5549 234.064Z" fill="#222222"/>
</svg>
